<svg version="1.1" xmlns="http://www.w3.org/2000/svg" xmlns:xlink="http://www.w3.org/1999/xlink" width="153.74812" height="146.96868" viewBox="0,0,153.74812,146.96868"><g transform="translate(-243.12594,-106.51566)"><g data-paper-data="{&quot;isPaintingLayer&quot;:true}" fill-rule="nonzero" stroke-linejoin="miter" stroke-miterlimit="10" stroke-dasharray="" stroke-dashoffset="0" style="mix-blend-mode: normal"><path d="M332.50363,216.06889l23.4314,-64.24739l5.38032,1.96224l-23.4314,64.24739z" fill="#a5a5a5" stroke="#828282" stroke-width="2.5" stroke-linecap="butt"/><path d="M341.81239,220.99003c0,24.47103 -22.06404,32.36059 -49.34322,32.36059c-27.27918,0 -49.34322,-7.88957 -49.34322,-32.36059c0,-11.50005 3.20932,-24.73847 10.29655,-35.43619l-5.75002,-19.38961c-1.06977,-3.61048 2.67443,-7.08724 6.15119,-5.6163l19.12217,8.02329c5.6163,-2.54071 12.03493,-4.01164 19.52333,-4.01164c7.35468,0 13.77331,1.60466 19.38961,4.14537l19.25589,-8.02329c3.47676,-1.47094 7.22096,2.00582 6.15119,5.6163l-5.88374,19.65705c6.95352,10.564 10.29655,23.6687 10.43027,35.03502z" fill="#9819ff" stroke="none" stroke-width="1" stroke-linecap="butt"/><path d="M340.82134,221.08333c0,24.10714 -21.73594,31.87938 -48.60946,31.87938c-26.87352,0 -48.60946,-7.77224 -48.60946,-31.87938c0,-11.32904 3.1616,-24.3706 10.14344,-34.90923l-5.66452,-19.10128c-1.05387,-3.55679 2.63466,-6.98185 6.05972,-5.53278l18.83782,7.90397c5.53278,-2.50293 11.85597,-3.95198 19.23301,-3.95198c7.24532,0 13.5685,1.58079 19.10128,4.08372l18.96954,-7.90398c3.42505,-1.44906 7.11358,1.976 6.05971,5.53279l-5.79625,19.36475c6.98185,10.4069 10.27517,23.31674 10.27517,34.51404z" fill="#9619ff" stroke="none" stroke-width="1" stroke-linecap="butt"/><path d="M340.28129,221.01522c0,20.45842 -21.38656,32.18317 -47.91252,32.18317c-26.52596,0 -47.91252,-11.72475 -47.91252,-32.18317c0,-20.45842 14.2577,-47.09697 47.91252,-47.09697c32.82589,0 47.91252,26.63856 47.91252,47.09697z" fill="#8d18ec" stroke="none" stroke-width="1" stroke-linecap="butt"/><path d="M340.38524,224.58181c0,18.25726 -21.38656,28.72053 -47.91253,28.72053c-26.52596,0 -47.91252,-10.46327 -47.91252,-28.72053c0,-18.25726 14.25771,-42.02974 47.91252,-42.02974c32.82588,0 47.91253,23.77248 47.91253,42.02974z" fill="#8015d7" stroke="none" stroke-width="1" stroke-linecap="butt"/><path d="M330.98095,236.50172c0,12.83726 -17.25007,16.98263 -38.6455,16.98263c-21.39543,0 -38.6455,-4.14537 -38.6455,-16.98263c0,-12.83726 11.50005,-29.55244 38.6455,-29.55244c26.61057,0 38.6455,16.71518 38.6455,29.55244z" fill="#ffffff" stroke="none" stroke-width="1" stroke-linecap="butt"/><path d="M288.05636,212.83302c0,-1.73838 1.8721,-2.27326 4.27909,-2.27326c2.40699,0 4.27909,0.53489 4.27909,2.27326c0,1.73838 -1.33721,3.87792 -4.27909,3.87792c-2.94187,0 -4.27909,-2.13954 -4.27909,-3.87792z" fill="#945600" stroke="#000000" stroke-width="1.5" stroke-linecap="butt"/><path d="M284.98077,225.67028c4.01164,0 7.35468,-3.34304 7.35468,-7.35468c0,-0.26744 0,-0.26744 0,-0.26744c0,-0.26744 0,-0.40116 0,-0.40116c0,0 0,0.13372 0,0.40116c0,0 0,0 0,0.26744c0,4.14537 3.34304,7.35468 7.35468,7.35468" fill="none" stroke="#000000" stroke-width="2.5" stroke-linecap="round"/><path d="M279.80861,198.12366c0,-2.28942 1.85595,-4.14537 4.14537,-4.14537c2.28942,0 4.14537,1.85595 4.14537,4.14537c0,2.28942 -1.85595,4.14537 -4.14537,4.14537c-2.28942,0 -4.14537,-1.85595 -4.14537,-4.14537z" fill="#000000" stroke="none" stroke-width="1" stroke-linecap="butt"/><path d="M296.92497,198.12366c0,-2.28942 1.85595,-4.14537 4.14537,-4.14537c2.28942,0 4.14537,1.85595 4.14537,4.14537c0,2.28942 -1.85595,4.14537 -4.14537,4.14537c-2.28942,0 -4.14537,-1.85595 -4.14537,-4.14537z" fill="#000000" stroke="none" stroke-width="1" stroke-linecap="butt"/><path d="M262.38184,175.9259c-2.80815,2.40699 -5.08142,4.68025 -7.22096,8.15701l-5.21514,-18.0524c-0.40116,-2.13954 1.60466,-4.01164 3.7442,-3.34304l17.25007,7.22096c-3.87792,1.60466 -6.15119,3.7442 -8.55817,6.01747z" fill="#530e8c" stroke="none" stroke-width="1" stroke-linecap="butt"/><path d="M314.26577,169.90843l17.25007,-7.22096c2.13954,-0.66861 4.14537,1.20349 3.7442,3.34304l-5.08142,18.0524c-2.00582,-3.47676 -4.41281,-5.75002 -7.08724,-8.15701c-2.67443,-2.27326 -4.94769,-4.41281 -8.82562,-6.01747z" fill="#530e8c" stroke="none" stroke-width="1" stroke-linecap="butt"/><path d="M288.05219,196.5069c0.26744,0 0.26744,0 0.26744,0c0.26744,0 0.40116,0 0.40116,0c0,0 -0.13372,0 -0.40116,0c0,0 0,0 -0.26744,0c-4.01164,0 -7.35468,-3.34304 -7.35468,-7.35468" fill="none" stroke="#000000" stroke-width="2.5" stroke-linecap="round"/><path d="M304.2178,188.92243c0,4.01164 -3.34304,7.35468 -7.35468,7.35468c-0.26744,0 -0.26744,0 -0.26744,0c-0.26744,0 -0.40116,0 -0.40116,0c0,0 0.13372,0 0.40116,0c0,0 0,0 0.26744,0" data-paper-data="{&quot;index&quot;:null}" fill="none" stroke="#000000" stroke-width="2.5" stroke-linecap="round"/><g stroke-linecap="butt"><path d="M344.85862,156.19362l-6.74589,-20.40006l7.8087,-18.91914l19.48504,-8.99491l22.35224,9.22568l7.77267,20.85191l-7.27386,17.62331l-18.19581,11.01555z" fill="#f40000" stroke="#820000" stroke-width="2.5"/><text transform="translate(346.18453,135.4176) rotate(22.42789) scale(0.41244,0.41569) skewX(-0.00023)" font-size="40" xml:space="preserve" fill="#f5f5f5" fill-rule="nonzero" stroke="none" stroke-width="1" stroke-linecap="butt" stroke-linejoin="miter" stroke-miterlimit="10" stroke-dasharray="" stroke-dashoffset="0" font-family="Sans Serif" font-weight="normal" text-anchor="start" style="mix-blend-mode: normal"><tspan x="0" dy="0">STOP</tspan></text></g></g></g></svg>