<svg version="1.1" xmlns="http://www.w3.org/2000/svg" xmlns:xlink="http://www.w3.org/1999/xlink" width="321.54114" height="80" viewBox="0,0,321.54114,80"><defs><linearGradient x1="419.89275" y1="179.1002" x2="420.04975" y2="195.0531" gradientUnits="userSpaceOnUse" id="color-1"><stop offset="0" stop-color="#761f9f"/><stop offset="0.88021" stop-color="#be33ff"/></linearGradient></defs><g transform="translate(-144.2995,-138)"><g data-paper-data="{&quot;isPaintingLayer&quot;:true}" fill-rule="nonzero" stroke="none" stroke-width="1" stroke-linecap="butt" stroke-linejoin="miter" stroke-miterlimit="10" stroke-dasharray="" stroke-dashoffset="0" style="mix-blend-mode: normal"><path d="M464.90875,214.5632c1.292,1.2503 0.406,3.4368 -1.391,3.4368h-83.508c-1.781,0 -2.674,-2.1544 -1.414,-3.4143l41.083,-41.0775c0.773,-0.772 2.021,-0.7821 2.806,-0.0225z" fill="url(#color-1)"/><path d="M422.803,182.5143c-0.784,0.7596 -2.033,0.7496 -2.805,-0.0225l-41.083,-41.0775c-1.26,-1.2599 -0.368,-3.4143 1.414,-3.4143h83.508c1.797,0 2.682,2.1865 1.391,3.4368z" fill="#be33ff"/><path d="M205.7395,138.384c0.5973,0 1.1093,0.2133 1.536,0.64c0.4267,0.3413 0.64,0.8107 0.64,1.408v75.392c0,0.5973 -0.2133,1.1093 -0.64,1.536c-0.4267,0.4267 -0.9387,0.64 -1.536,0.64h-9.984c-0.512,0 -0.9813,-0.2133 -1.408,-0.64c-0.4267,-0.4267 -0.64,-0.9387 -0.64,-1.536v-30.592h-35.2v30.592c0,0.5973 -0.2133,1.1093 -0.64,1.536c-0.4267,0.4267 -0.9387,0.64 -1.536,0.64h-9.856c-0.4267,0 -0.8107,-0.0853 -1.152,-0.256c-0.3413,-0.1707 -0.5973,-0.4267 -0.768,-0.768c-0.17067,-0.3413 -0.256,-0.7253 -0.256,-1.152v-75.392c0,-0.5973 0.2133,-1.0667 0.64,-1.408c0.4267,-0.4267 0.9387,-0.64 1.536,-0.64h9.856c0.5973,0 1.1093,0.2133 1.536,0.64c0.4267,0.3413 0.64,0.8107 0.64,1.408v30.592h35.2v-30.592c0,-0.5973 0.2133,-1.0667 0.64,-1.408c0.4267,-0.4267 0.896,-0.64 1.408,-0.64zM275.023,203.792c0.597,0 1.109,0.2133 1.536,0.64c0.426,0.4267 0.64,0.9387 0.64,1.536v9.856c0,0.4267 -0.086,0.8107 -0.256,1.152c-0.171,0.3413 -0.427,0.5973 -0.768,0.768c-0.342,0.1707 -0.726,0.256 -1.152,0.256h-44.5445c-0.3413,0 -0.64,-0.0427 -0.896,-0.128c-0.256,-0.1707 -0.4693,-0.3413 -0.64,-0.512c-0.1707,-0.1707 -0.3413,-0.384 -0.512,-0.64c-0.0853,-0.256 -0.128,-0.5547 -0.128,-0.896v-75.392c0,-0.5973 0.2133,-1.0667 0.64,-1.408c0.4267,-0.4267 0.9387,-0.64 1.536,-0.64h41.6005c0.597,0 1.109,0.2133 1.536,0.64c0.426,0.3413 0.64,0.8107 0.64,1.408v9.984c0,0.3413 -0.086,0.6827 -0.256,1.024c-0.171,0.3413 -0.427,0.5973 -0.768,0.768c-0.342,0.1707 -0.726,0.256 -1.152,0.256h-29.568v17.792h23.68c0.597,0 1.109,0.2133 1.536,0.64c0.426,0.4267 0.64,0.9387 0.64,1.536v9.984c0,0.512 -0.214,0.9813 -0.64,1.408c-0.427,0.4267 -0.939,0.64 -1.536,0.64h-23.68v19.328zM336.18,203.792c0.597,0 1.066,0.2133 1.408,0.64c0.426,0.4267 0.64,0.9387 0.64,1.536v9.856c0,0.5973 -0.214,1.1093 -0.64,1.536c-0.342,0.4267 -0.811,0.64 -1.408,0.64h-40.704c-0.598,0 -1.11,-0.2133 -1.536,-0.64c-0.427,-0.4267 -0.64,-0.9387 -0.64,-1.536v-75.392c0,-0.5973 0.213,-1.0667 0.64,-1.408c0.426,-0.4267 0.938,-0.64 1.536,-0.64h9.856c0.597,0 1.109,0.2133 1.536,0.64c0.426,0.3413 0.64,0.8107 0.64,1.408v63.36zM363.582,138.384c0.597,0 1.109,0.2133 1.536,0.64c0.426,0.3413 0.64,0.8107 0.64,1.408v75.392c0,0.5973 -0.214,1.1093 -0.64,1.536c-0.427,0.4267 -0.939,0.64 -1.536,0.64h-9.856c-0.256,0 -0.512,-0.0427 -0.768,-0.128c-0.171,-0.0853 -0.342,-0.1707 -0.512,-0.256c-0.171,-0.1707 -0.342,-0.3413 -0.512,-0.512c-0.086,-0.1707 -0.171,-0.3413 -0.256,-0.512c-0.086,-0.256 -0.128,-0.512 -0.128,-0.768v-75.392c0,-0.5973 0.213,-1.0667 0.64,-1.408c0.426,-0.4267 0.938,-0.64 1.536,-0.64z" fill="#be33ff"/></g></g></svg>