<svg version="1.1" xmlns="http://www.w3.org/2000/svg" xmlns:xlink="http://www.w3.org/1999/xlink" width="74.31801" height="116.80064" viewBox="0,0,74.31801,116.80064"><g transform="translate(-283.1,-121.80591)"><g data-paper-data="{&quot;isPaintingLayer&quot;:true}" fill-rule="nonzero" stroke-linejoin="miter" stroke-miterlimit="10" stroke-dasharray="" stroke-dashoffset="0" style="mix-blend-mode: normal"><path d="M356.9,213.37045c0,18.3 -16.5,24.2 -36.9,24.2c-20.4,0 -36.9,-5.9 -36.9,-24.2c0,-8.6 2.4,-18.5 7.7,-26.5l-4.3,-14.5c-0.8,-2.7 2,-5.3 4.6,-4.2l14.3,6c4.2,-1.9 9,-3 14.6,-3c5.5,0 10.3,1.2 14.5,3.1l14.4,-6c2.6,-1.1 5.4,1.5 4.6,4.2l-4.4,14.7c5.2,7.9 7.7,17.7 7.8,26.2z" fill="#9819ff" stroke="none" stroke-width="1" stroke-linecap="butt"/><path d="M357.41801,214.14872c0,18.3 -16.5,24.2 -36.9,24.2c-20.4,0 -36.9,-5.9 -36.9,-24.2c0,-8.6 2.4,-18.5 7.7,-26.5l-4.3,-14.5c-0.8,-2.7 2,-5.3 4.6,-4.2l14.3,6c4.2,-1.9 9,-3 14.6,-3c5.5,0 10.3,1.2 14.5,3.1l14.4,-6c2.6,-1.1 5.4,1.5 4.6,4.2l-4.4,14.7c5.3,7.9 7.8,17.7 7.8,26.2z" fill="#9619ff" stroke="none" stroke-width="1" stroke-linecap="butt"/><path d="M357.00805,214.09702c0,15.53021 -16.23478,24.43061 -36.37095,24.43061c-20.13617,0 -36.37095,-8.9004 -36.37095,-24.43061c0,-15.53021 10.82319,-35.75185 36.37095,-35.75185c24.9185,0 36.37095,20.22163 36.37095,35.75185z" fill="#8d18ec" stroke="none" stroke-width="1" stroke-linecap="butt"/><path d="M357.08696,216.80446c0,13.8593 -16.23478,21.80209 -36.37095,21.80209c-20.13617,0 -36.37095,-7.94279 -36.37095,-21.80209c0,-13.8593 10.82319,-31.90525 36.37095,-31.90525c24.9185,0 36.37095,18.04596 36.37095,31.90525z" fill="#8015d7" stroke="none" stroke-width="1" stroke-linecap="butt"/><path d="M348.8,224.97045c0,9.6 -12.9,12.7 -28.9,12.7c-16,0 -28.9,-3.1 -28.9,-12.7c0,-9.6 8.6,-22.1 28.9,-22.1c19.9,0 28.9,12.5 28.9,22.1z" fill="#ffffff" stroke="none" stroke-width="1" stroke-linecap="butt"/><path d="M316.7,207.27045c0,-1.3 1.4,-1.7 3.2,-1.7c1.8,0 3.2,0.4 3.2,1.7c0,1.3 -1,2.9 -3.2,2.9c-2.2,0 -3.2,-1.6 -3.2,-2.9z" fill="#945600" stroke="#000000" stroke-width="1.5" stroke-linecap="butt"/><path d="M314.4,216.87045c3,0 5.5,-2.5 5.5,-5.5c0,-0.2 0,-0.2 0,-0.2c0,-0.2 0,-0.3 0,-0.3c0,0 0,0.1 0,0.3c0,0 0,0 0,0.2c0,3.1 2.5,5.5 5.5,5.5" fill="none" stroke="#000000" stroke-width="2.5" stroke-linecap="round"/><path d="M310.53215,196.27045c0,-1.71208 1.38792,-3.1 3.1,-3.1c1.71208,0 3.1,1.38792 3.1,3.1c0,1.71208 -1.38792,3.1 -3.1,3.1c-1.71208,0 -3.1,-1.38792 -3.1,-3.1z" fill="#000000" stroke="none" stroke-width="1" stroke-linecap="butt"/><path d="M323.33215,196.27045c0,-1.71208 1.38792,-3.1 3.1,-3.1c1.71208,0 3.1,1.38792 3.1,3.1c0,1.71208 -1.38792,3.1 -3.1,3.1c-1.71208,0 -3.1,-1.38792 -3.1,-3.1z" fill="#000000" stroke="none" stroke-width="1" stroke-linecap="butt"/><path d="M297.5,179.67045c-2.1,1.8 -3.8,3.5 -5.4,6.1l-3.9,-13.5c-0.3,-1.6 1.2,-3 2.8,-2.5l12.9,5.4c-2.9,1.2 -4.6,2.8 -6.4,4.5z" fill="#530e8c" stroke="none" stroke-width="1" stroke-linecap="butt"/><path d="M336.3,175.17045l12.9,-5.4c1.6,-0.5 3.1,0.9 2.8,2.5l-3.8,13.5c-1.5,-2.6 -3.3,-4.3 -5.3,-6.1c-2,-1.7 -3.7,-3.3 -6.6,-4.5z" fill="#530e8c" stroke="none" stroke-width="1" stroke-linecap="butt"/><path d="M330.2464,195.35768c-3,0 -5.5,-2.5 -5.5,-5.5c0,-0.2 0,-0.2 0,-0.2c0,-0.2 0,-0.3 0,-0.3c0,0 0,0.1 0,0.3c0,0 0,0 0,0.2" data-paper-data="{&quot;index&quot;:null}" fill="none" stroke="#000000" stroke-width="2.5" stroke-linecap="round"/><text transform="translate(312.82273,163.90584) rotate(18.59055) scale(1.00451,1.00451)" font-size="40" xml:space="preserve" fill="#ffffff" fill-rule="nonzero" stroke="none" stroke-width="1" stroke-linecap="butt" stroke-linejoin="miter" stroke-miterlimit="10" stroke-dasharray="" stroke-dashoffset="0" font-family="Sans Serif" font-weight="normal" text-anchor="start" style="mix-blend-mode: normal"><tspan x="0" dy="0">?</tspan></text></g></g></svg>