<svg version="1.1" xmlns="http://www.w3.org/2000/svg" xmlns:xlink="http://www.w3.org/1999/xlink" width="95.21086" height="23.65946" viewBox="0,0,95.21086,23.65946"><defs><linearGradient x1="354.11094" y1="180.32538" x2="354.15737" y2="185.04334" gradientUnits="userSpaceOnUse" id="color-1"><stop offset="0" stop-color="#a66e24"/><stop offset="1" stop-color="#f9a637"/></linearGradient></defs><g transform="translate(-272.39457,-168.17027)"><g data-paper-data="{&quot;isPaintingLayer&quot;:true}" fill-rule="nonzero" stroke="none" stroke-width="1" stroke-linecap="butt" stroke-linejoin="miter" stroke-miterlimit="10" stroke-dasharray="" stroke-dashoffset="0" style="mix-blend-mode: normal"><path d="M367.42412,190.81332c0.3821,0.36977 0.12007,1.01641 -0.41138,1.01641h-24.69693c-0.52672,0 -0.79082,-0.63715 -0.41818,-1.00976l12.15001,-12.14839c0.22861,-0.22832 0.5977,-0.2313 0.82986,-0.00665z" fill="url(#color-1)"/><path d="M354.7601,181.33508c-0.23187,0.22465 -0.60124,0.22169 -0.82956,-0.00665l-12.15002,-12.14839c-0.37264,-0.3726 -0.10883,-1.00976 0.41818,-1.00976h24.69693c0.53145,0 0.79318,0.64664 0.41138,1.01641z" fill="#f9a637"/><path d="M290.56504,168.28384c0.17665,0 0.32806,0.06308 0.45426,0.18927c0.12619,0.10093 0.18928,0.23977 0.18928,0.41641v22.29667c0,0.17665 -0.06308,0.32807 -0.18928,0.45426c-0.12619,0.12619 -0.27761,0.18928 -0.45426,0.18928h-2.9527c-0.15142,0 -0.29021,-0.06308 -0.4164,-0.18928c-0.12619,-0.12619 -0.18928,-0.27762 -0.18928,-0.45426v-9.04738h-10.41016v9.04738c0,0.17665 -0.06308,0.32807 -0.18928,0.45426c-0.12619,0.12619 -0.27762,0.18928 -0.45426,0.18928h-2.91484c-0.12619,0 -0.23976,-0.02523 -0.3407,-0.07571c-0.10093,-0.05049 -0.17665,-0.12619 -0.22713,-0.22713c-0.05048,-0.10093 -0.07571,-0.21451 -0.07571,-0.3407v-22.29667c0,-0.17665 0.06308,-0.31548 0.18928,-0.41641c0.12619,-0.12619 0.27762,-0.18927 0.45427,-0.18927h2.91484c0.17665,0 0.32807,0.06308 0.45426,0.18927c0.12619,0.10093 0.18928,0.23977 0.18928,0.41641v9.04737h10.41016v-9.04737c0,-0.17665 0.06309,-0.31548 0.18928,-0.41641c0.12619,-0.12619 0.26499,-0.18927 0.4164,-0.18927zM311.05516,187.62781c0.17656,0 0.32798,0.06308 0.45426,0.18927c0.12599,0.12619 0.18928,0.27761 0.18928,0.45426v2.91485c0,0.12619 -0.02543,0.23977 -0.07571,0.3407c-0.05057,0.10093 -0.12628,0.17664 -0.22713,0.22713c-0.10114,0.05049 -0.21471,0.07571 -0.34069,0.07571h-13.17374c-0.10093,0 -0.18927,-0.01263 -0.26498,-0.03786c-0.07571,-0.05049 -0.13879,-0.10093 -0.18928,-0.15142c-0.05048,-0.05049 -0.10094,-0.11357 -0.15142,-0.18928c-0.02522,-0.07571 -0.03785,-0.16405 -0.03785,-0.26498v-22.29667c0,-0.17665 0.06308,-0.31548 0.18928,-0.41641c0.12619,-0.12619 0.27761,-0.18927 0.45426,-0.18927h12.30307c0.17656,0 0.32799,0.06308 0.45427,0.18927c0.12599,0.10093 0.18928,0.23977 0.18928,0.41641v2.9527c0,0.10093 -0.02544,0.20191 -0.07571,0.30284c-0.05057,0.10093 -0.12628,0.17664 -0.22713,0.22713c-0.10114,0.05049 -0.21472,0.07571 -0.3407,0.07571h-8.74453v5.26187h7.0032c0.17656,0 0.32799,0.06308 0.45427,0.18928c0.12599,0.12619 0.18928,0.27761 0.18928,0.45426v2.9527c0,0.15142 -0.06329,0.29021 -0.18928,0.41641c-0.12628,0.12619 -0.27771,0.18928 -0.45427,0.18928h-7.0032v5.71613zM329.14193,187.62781c0.17656,0 0.31526,0.06308 0.4164,0.18927c0.12599,0.12619 0.18928,0.27761 0.18928,0.45426v2.91485c0,0.17665 -0.06329,0.32807 -0.18928,0.45426c-0.10114,0.12619 -0.23985,0.18928 -0.4164,0.18928h-12.03794c-0.17685,0 -0.32827,-0.06308 -0.45426,-0.18928c-0.12628,-0.12619 -0.18928,-0.27762 -0.18928,-0.45426v-22.29667c0,-0.17665 0.063,-0.31548 0.18928,-0.41641c0.12599,-0.12619 0.2774,-0.18927 0.45426,-0.18927h2.91485c0.17656,0 0.32798,0.06308 0.45426,0.18927c0.12599,0.10093 0.18928,0.23977 0.18928,0.41641v18.73829zM337.24589,168.28384c0.17656,0 0.32798,0.06308 0.45426,0.18927c0.12599,0.10093 0.18927,0.23977 0.18927,0.41641v22.29667c0,0.17665 -0.06329,0.32807 -0.18927,0.45426c-0.12628,0.12619 -0.2777,0.18928 -0.45426,0.18928h-2.91485c-0.07571,0 -0.15142,-0.01263 -0.22713,-0.03786c-0.05057,-0.02523 -0.10115,-0.05049 -0.15142,-0.07571c-0.05057,-0.05049 -0.10115,-0.10093 -0.15142,-0.15142c-0.02544,-0.05049 -0.05057,-0.10094 -0.07571,-0.15142c-0.02544,-0.07571 -0.03785,-0.15142 -0.03785,-0.22713v-22.29667c0,-0.17665 0.063,-0.31548 0.18928,-0.41641c0.12599,-0.12619 0.27741,-0.18927 0.45426,-0.18927z" fill="#f9a637"/></g></g></svg>